# Blender v2.78 (sub 0) OBJ File: 'pika.blend'
# www.blender.org
mtllib Pika_body.mtl
o Pika_body_DrawCall_98
v -10.416660 20.596420 -2.043063
v -7.189312 23.578413 7.546133
v -10.320318 18.136826 -0.004071
v -7.044807 20.123949 -7.595614
v 1.384835 19.443819 -9.866544
v 9.814484 20.123949 -7.595613
v 8.851089 13.918076 -6.946929
v 13.186338 20.596420 -2.043061
v 13.089987 18.136826 -0.004069
v 10.777871 25.541077 5.400813
v 12.319301 25.768738 -0.156048
v -6.996645 23.707918 -6.946875
v -9.911798 16.055466 3.990909
v -7.379490 15.052977 8.105983
v 1.384834 33.820068 -7.583739
v 11.211402 29.066162 4.785487
v 10.392520 30.394468 7.208396
v 7.598692 28.911314 9.413499
v 1.384833 28.401243 12.465708
v 7.984045 25.375761 8.766229
v 1.384833 23.061918 12.250896
v -7.622843 30.394468 7.208395
v -8.441725 29.066162 4.785486
v -9.549616 25.768738 -0.156050
v -8.008194 25.541077 5.400812
v 1.384834 11.148057 -6.024701
v 4.419499 10.599854 -2.953526
v -1.649839 10.599854 -2.953526
v 2.829914 10.225905 3.607465
v -0.060246 10.225905 3.607465
v 1.384817 14.824736 8.223974
v 3.311599 14.698470 8.041419
v 5.238380 19.216276 10.184690
v 9.958989 23.578413 7.546134
v -3.604538 12.913434 8.939795
v -2.468721 19.216276 10.184690
v -0.541948 14.698470 8.041419
v 1.384835 14.451890 -8.751044
v -6.081421 13.918076 -6.946929
v 6.375314 12.915891 8.926979
v 10.143072 15.056441 8.094478
v 12.671536 16.057953 3.986709
v 11.018709 32.950012 1.944358
v 9.188278 33.977783 -4.337415
v 9.766323 23.707918 -6.946874
v 1.384835 23.025286 -9.704318
v -6.418609 33.977783 -4.337416
v -8.249041 32.950012 1.944357
v -4.829025 28.911314 9.413498
v -5.214376 25.375761 8.766229
v -0.011401 34.816772 3.867799
vt 0.6487 0.5746
vt 0.4754 0.5782
vt 0.6433 0.4469
vt 0.6091 0.4165
vt 0.4681 0.5183
vt 0.3434 0.4805
vt 0.3210 0.5746
vt 0.2581 0.4075
vt 0.1863 0.4369
vt 0.1863 0.2447
vt 0.2604 0.2996
vt 0.3068 0.1389
vt 0.3338 0.1934
vt 0.5299 0.1928
vt 0.5435 0.1498
vt 0.4727 0.0334
vt 0.3698 0.9640
vt 0.2970 0.9817
vt 0.2966 0.9402
vt 0.1972 0.9924
vt 0.1972 0.9513
vt 0.0978 0.9402
vt 0.0974 0.9817
vt 0.0245 0.9640
vt 0.4799 0.4607
vt 0.4862 0.4136
vt 0.0216 0.8996
vt 0.6099 0.1261
vt 0.7379 0.0633
vt 0.6393 0.1626
vt 0.6234 0.2104
vt 0.6414 0.2878
vt 0.5691 0.2162
vt 0.5738 0.3068
vt 0.6259 0.3804
vt 0.6731 0.3608
vt 0.7129 0.3931
vt 0.8430 0.4272
vt 0.7109 0.4348
vt 0.3029 0.3886
vt 0.3122 0.3470
vt 0.3506 0.4056
vt 0.3694 0.3501
vt 0.3947 0.3708
vt 0.4536 0.3391
vt 0.4378 0.3279
vt 0.5006 0.2852
vt 0.4627 0.3824
vt 0.5348 0.3587
vt 0.4612 0.3526
vt 0.4073 0.3063
vt 0.4103 0.2652
vt 0.3753 0.2306
vt 0.3710 0.8117
vt 0.3727 0.8996
vt 0.2947 0.8184
vt 0.1972 0.8265
vt 0.0997 0.8184
vt 0.0233 0.8117
vt 0.0994 0.4257
vt 0.1988 0.4779
vt 0.3226 0.0601
vt 0.0000 0.0000
vn -0.9947 0.0344 -0.0966
vn -0.9894 0.0167 -0.1446
vn -0.8363 -0.3417 0.4288
vn -0.5394 -0.0502 0.8405
vn -0.9903 -0.1380 0.0132
vn -0.7831 -0.4584 -0.4202
vn -0.5299 -0.0539 -0.8463
vn -0.2323 -0.4263 -0.8742
vn 0.0000 0.0032 -1.0000
vn 0.5299 -0.0539 -0.8463
vn 0.3098 -0.6136 -0.7263
vn 0.9894 0.0167 -0.1446
vn 0.9761 -0.2165 0.0186
vn 0.9433 -0.1228 0.3084
vn 0.8297 0.3144 0.4613
vn 0.9687 0.1401 0.2048
vn 0.6618 0.1792 -0.7280
vn 0.0675 0.1405 -0.9878
vn -0.5816 0.2011 -0.7882
vn -0.8679 -0.4113 0.2787
vn -0.6080 -0.4325 0.6657
vn 0.9642 0.1889 0.1862
vn 0.7195 0.6084 0.3350
vn 0.2558 0.6594 0.7069
vn 0.6297 0.4120 0.6586
vn 0.0064 0.3664 0.9304
vn 0.6496 -0.0813 0.7559
vn -0.0000 -0.1774 0.9841
vn -0.5782 0.0809 0.8118
vn -0.4495 0.4587 0.7665
vn -0.7780 0.1115 0.6183
vn -0.6680 0.7135 0.2113
vn -0.9938 0.0286 0.1076
vn -0.0000 -0.8423 -0.5390
vn 0.1385 -0.9795 -0.1464
vn -0.1462 -0.9845 -0.0971
vn 0.2886 -0.9000 0.3268
vn -0.1505 -0.8982 0.4130
vn -0.0000 -0.5635 0.8261
vn -0.3313 -0.4979 0.8014
vn 0.2144 -0.1894 0.9582
vn -0.1151 -0.6950 0.7097
vn -0.2136 -0.1887 0.9585
vn 0.3329 -0.4973 0.8012
vn 0.1229 -0.6882 0.7150
vn 0.6554 -0.3837 0.6505
vn 0.8735 -0.4227 0.2413
vn 0.5860 0.7085 -0.3932
vn 0.0666 0.6857 -0.7248
vn -0.4726 0.7142 -0.5162
vn -0.0334 0.9473 0.3185
usemtl Pika
s 1
f 24/1/1 1/2/2 25/3/3
f 25/3/3 1/2/2 2/4/4
f 2/4/4 1/2/2 3/5/5
f 3/5/5 1/2/2 39/6/6
f 1/2/2 4/7/7 39/6/6
f 39/6/6 4/7/7 38/8/8
f 4/7/7 5/9/9 38/8/8
f 5/9/9 6/10/10 38/8/8
f 38/8/8 6/10/10 7/11/11
f 6/10/10 8/12/12 7/11/11
f 7/11/11 8/12/12 9/13/13
f 9/13/13 8/12/12 34/14/14
f 34/14/14 8/12/12 10/15/15
f 10/15/15 8/12/12 11/16/16
f 8/17/12 6/18/10 45/19/17
f 6/18/10 5/20/9 45/19/17
f 45/19/17 5/20/9 46/21/18
f 12/22/19 46/21/18 5/20/9
f 4/23/7 1/24/2 12/22/19
f 3/5/5 13/25/20 2/4/4
f 13/25/20 14/26/21 2/4/4
f 1/24/2 24/27/1 12/22/19
f 10/15/15 11/16/16 16/28/22
f 16/28/22 43/29/23 17/30/24
f 18/31/25 19/32/26 20/33/27
f 20/33/27 19/32/26 21/34/28
f 21/34/28 19/32/26 50/35/29
f 50/35/29 19/32/26 49/36/30
f 22/37/31 48/38/32 23/39/33
f 24/1/1 25/3/3 23/39/33
f 26/40/34 27/41/35 28/42/36
f 27/41/35 29/43/37 28/42/36
f 28/42/36 29/43/37 30/44/38
f 30/44/38 29/43/37 31/45/39
f 29/43/37 32/46/40 31/45/39
f 32/46/40 33/47/41 31/45/39
f 31/45/39 33/47/41 21/34/28
f 21/34/28 33/47/41 20/33/27
f 33/47/41 34/14/14 20/33/27
f 35/48/42 36/49/43 14/26/21
f 14/26/21 36/49/43 2/4/4
f 2/4/4 36/49/43 50/35/29
f 50/35/29 36/49/43 21/34/28
f 21/34/28 36/49/43 31/45/39
f 36/49/43 37/50/44 31/45/39
f 31/45/39 37/50/44 30/44/38
f 35/48/42 37/50/44 36/49/43
f 27/41/35 26/40/34 7/11/11
f 7/11/11 26/40/34 38/8/8
f 38/8/8 26/40/34 39/6/6
f 26/40/34 28/42/36 39/6/6
f 40/51/45 41/52/46 33/47/41
f 33/47/41 41/52/46 34/14/14
f 41/52/46 42/53/47 34/14/14
f 34/14/14 42/53/47 9/13/13
f 32/46/40 40/51/45 33/47/41
f 43/54/23 11/55/16 44/56/48
f 11/55/16 45/19/17 44/56/48
f 45/19/17 46/21/18 44/56/48
f 44/56/48 46/21/18 15/57/49
f 47/58/50 15/57/49 46/21/18
f 46/21/18 12/22/19 47/58/50
f 47/58/50 12/22/19 24/27/1
f 47/58/50 24/27/1 48/59/32
f 23/39/33 48/38/32 24/1/1
f 16/28/22 11/16/16 43/29/23
f 45/19/17 11/55/16 8/17/12
f 12/60/19 5/61/9 4/62/7
f 23/39/33 25/3/3 22/37/31
f 2/4/4 50/35/29 25/3/3
f 50/35/29 49/36/30 25/3/3
f 25/3/3 49/36/30 22/37/31
f 49/36/30 51/63/51 22/37/31
f 22/37/31 51/63/51 48/38/32
f 48/38/32 51/63/51 47/58/50
f 15/57/49 47/58/50 51/63/51
f 15/57/49 51/63/51 44/56/48
f 44/56/48 51/63/51 43/54/23
f 17/30/24 43/54/23 51/63/51
f 49/36/30 19/32/26 51/63/51
f 16/28/22 17/30/24 10/15/15
f 34/14/14 10/15/15 20/33/27
f 20/33/27 10/15/15 18/31/25
f 10/15/15 17/30/24 18/31/25
f 51/63/51 18/31/25 17/30/24
f 18/31/25 51/63/51 19/32/26
f 39/6/6 13/25/20 3/5/5
f 39/6/6 28/42/36 13/25/20
f 13/25/20 28/42/36 14/26/21
f 35/48/42 14/26/21 28/42/36
f 28/42/36 30/44/38 35/48/42
f 35/48/42 30/44/38 37/50/44
f 32/46/40 29/43/37 40/51/45
f 29/43/37 27/41/35 40/51/45
f 40/51/45 27/41/35 41/52/46
f 42/53/47 41/52/46 27/41/35
f 42/53/47 27/41/35 9/13/13
f 7/11/11 9/13/13 27/41/35
