# Blender v2.78 (sub 0) OBJ File: 'pika.blend'
# www.blender.org
mtllib Pika_rleg.mtl
o Pika_rleg_DrawCall_98.009
v -10.320318 18.136826 -0.004073
v -9.911798 16.055466 3.990907
v -7.379490 15.052978 8.105981
v -1.649839 10.599853 -2.953527
v -0.060246 10.225906 3.607463
v -1.474237 7.977935 3.347946
v -3.369317 7.339126 0.788608
v -6.021512 11.212492 -3.257225
v -6.426520 7.773330 -0.175649
v -8.995687 9.013961 3.455009
v -7.007454 8.650466 7.183383
v -3.604538 12.913436 8.939795
v -0.541948 14.698471 8.041417
v -1.877558 8.615661 6.505278
v -6.081421 13.918075 -6.946931
v -5.457479 3.238295 3.972611
v -5.085299 3.145382 4.204037
v -4.184632 2.848244 3.129373
v -4.268639 2.974186 1.899353
v -5.179483 3.238671 2.710849
v -4.499751 19.716362 3.165261
v -6.655185 19.295095 1.730345
v -4.991855 19.000326 -2.751420
v -2.893563 19.470112 -1.657609
v -1.742207 19.644838 0.109418
v -1.444816 19.678768 1.651477
v -2.540750 19.718830 2.737511
v -6.428275 19.411533 -0.744761
v -4.378043 19.292734 0.570929
vt 0.0000 0.0000
vt 0.0000 0.0000
vt 0.0000 0.0000
vt 0.0000 0.0000
vt 0.0000 0.0000
vt 0.0000 0.0000
vt 0.0000 0.0000
vt 0.0000 0.0000
vt 0.0000 0.0000
vt 0.0000 0.0000
vt 0.0000 0.0000
vt 0.0000 0.0000
vt 0.0000 0.0000
vt 0.0000 0.0000
vt 0.0000 0.0000
vt 0.0000 0.0000
vt 0.0000 0.0000
vt 0.0000 0.0000
vt 0.0000 0.0000
vt 0.0000 0.0000
vt 0.0000 0.0000
vt 0.0000 0.0000
vt 0.0000 0.0000
vt 0.0000 0.0000
vt 0.0000 0.0000
vt 0.0000 0.0000
vt 0.0000 0.0000
vt 0.0000 0.0000
vt 0.0000 0.0000
vn -0.1659 0.9698 -0.1786
vn -0.0694 0.8170 -0.5725
vn -0.8558 0.4889 -0.1693
vn -0.1910 -0.0953 -0.9770
vn 0.3907 0.7894 -0.4735
vn 0.6473 -0.4162 -0.6386
vn 0.5992 0.7581 -0.2573
vn 0.9689 -0.2470 0.0129
vn 0.6501 0.7598 0.0082
vn 0.6271 0.3283 0.7064
vn 0.1700 0.9274 0.3331
vn 0.0898 0.0466 0.9949
vn -0.0873 0.9282 0.3617
vn -0.4452 0.3533 0.8227
vn -0.3011 0.9303 0.2094
vn -0.8660 0.3139 0.3892
vn -0.5044 -0.6343 -0.5858
vn -0.9393 -0.3427 0.0169
vn -0.4900 -0.3839 0.7826
vn -0.0566 0.9959 -0.0710
vn 0.5885 -0.4741 0.6549
vn -0.0487 -0.8238 0.5648
vn 0.3915 -0.9102 0.1350
vn 0.8517 -0.5197 -0.0669
vn 0.1969 -0.8020 -0.5640
vn 0.4971 -0.5552 -0.6669
vn -0.4543 -0.5420 -0.7070
vn -0.6173 -0.7394 -0.2688
vn -0.6191 -0.7627 0.1870
usemtl Pika
s 1
f 28/1/1 23/2/2 1/3/3
f 15/4/4 1/3/3 23/2/2
f 23/2/2 24/5/5 15/4/4
f 15/4/4 24/5/5 4/6/6
f 24/5/5 25/7/7 4/6/6
f 5/8/8 4/6/6 25/7/7
f 25/7/7 26/9/9 5/8/8
f 13/10/10 5/8/8 26/9/9
f 26/9/9 27/11/11 13/10/10
f 13/10/10 27/11/11 12/12/12
f 27/11/11 21/13/13 12/12/12
f 12/12/12 21/13/13 3/14/14
f 21/13/13 22/15/15 3/14/14
f 3/14/14 22/15/15 2/16/16
f 8/17/17 1/3/3 15/4/4
f 8/17/17 10/18/18 1/3/3
f 2/16/16 1/3/3 10/18/18
f 3/14/14 2/16/16 10/18/18
f 11/19/19 3/14/14 10/18/18
f 2/16/16 22/15/15 1/3/3
f 22/15/15 28/1/1 1/3/3
f 28/1/1 22/15/15 29/20/20
f 28/1/1 29/20/20 23/2/2
f 24/5/5 23/2/2 29/20/20
f 25/7/7 24/5/5 29/20/20
f 22/15/15 21/13/13 29/20/20
f 27/11/11 29/20/20 21/13/13
f 27/11/11 26/9/9 29/20/20
f 26/9/9 25/7/7 29/20/20
f 11/19/19 12/12/12 3/14/14
f 13/10/10 12/12/12 14/21/21
f 12/12/12 11/19/19 14/21/21
f 14/21/21 11/19/19 17/22/22
f 17/22/22 18/23/23 14/21/21
f 14/21/21 18/23/23 6/24/24
f 18/23/23 19/25/25 6/24/24
f 7/26/26 6/24/24 19/25/25
f 9/27/27 7/26/26 19/25/25
f 19/25/25 20/28/28 9/27/27
f 10/18/18 9/27/27 20/28/28
f 16/29/29 10/18/18 20/28/28
f 11/19/19 10/18/18 16/29/29
f 16/29/29 17/22/22 11/19/19
f 20/28/28 17/22/22 16/29/29
f 17/22/22 20/28/28 18/23/23
f 19/25/25 18/23/23 20/28/28
f 14/21/21 5/8/8 13/10/10
f 14/21/21 6/24/24 5/8/8
f 6/24/24 4/6/6 5/8/8
f 6/24/24 7/26/26 4/6/6
f 7/26/26 8/17/17 4/6/6
f 8/17/17 7/26/26 9/27/27
f 9/27/27 10/18/18 8/17/17
f 8/17/17 15/4/4 4/6/6
