# Blender v2.78 (sub 0) OBJ File: 'pika.blend'
# www.blender.org
mtllib Pika_rarm.mtl
o Pika_rarm_DrawCall_98.004
v -7.189312 23.578413 7.546133
v -5.214376 25.375761 8.766229
v -4.829025 28.911314 9.413498
v -7.622843 30.394468 7.208395
v -8.441725 29.066162 4.785486
v -8.008194 25.541077 5.400812
v -10.397414 25.498106 8.392922
v -8.902533 24.066786 9.401623
v -7.350900 25.158125 10.971175
v -7.656771 27.795347 11.360396
v -9.557306 28.854216 9.858562
v -10.630690 27.765608 8.731189
v -12.185666 25.180769 11.072144
v -11.144008 24.450560 11.977668
v -10.424504 25.013945 12.988153
v -10.559120 26.897902 13.311500
v -11.728523 27.332701 12.294763
v -12.448608 26.471279 11.326356
v -13.255726 25.670759 12.663864
v -11.876470 25.166990 13.045102
v -11.709905 24.080137 13.525207
v -11.134053 25.069914 13.751732
v -11.844538 25.200758 14.196063
v -12.715710 24.819349 14.359915
v -12.174311 25.970121 14.483423
v -13.552970 26.253675 12.997767
v -13.567444 25.224546 13.306192
v -3.669838 28.155283 5.578061
v -4.645077 28.771591 4.511330
v -5.330215 28.399891 3.306286
v -5.342046 27.421608 3.353100
v -4.803041 26.382637 4.088850
v -9.557306 28.854216 9.858562
v -4.829025 28.911314 9.413498
v -4.829025 28.911314 9.413498
v -5.214376 25.375761 8.766229
v -3.607221 27.118423 5.183751
vt 0.0000 0.0000
vt 0.0000 0.0000
vt 0.0000 0.0000
vt 0.0000 0.0000
vt 0.0000 0.0000
vt 0.0000 0.0000
vt 0.0000 0.0000
vt 0.7109 0.4348
vt 0.7129 0.3931
vt 0.0000 0.0000
vt 0.6433 0.4469
vt 0.0000 0.0000
vt 0.0000 0.0000
vt 0.6508 0.4139
vt 0.6384 0.4085
vt 0.6091 0.4165
vt 0.6455 0.3973
vt 0.6259 0.3804
vt 0.6621 0.3935
vt 0.6731 0.3608
vt 0.6722 0.4024
vt 0.6731 0.3608
vt 0.6722 0.4024
vt 0.6666 0.4094
vt 0.6543 0.4057
vt 0.6527 0.4042
vt 0.6541 0.4035
vt 0.6578 0.4032
vt 0.6587 0.4047
vt 0.6571 0.4058
vt 0.6558 0.4047
vt 0.6546 0.4043
vt 0.6543 0.4041
vt 0.6549 0.4040
vt 0.6554 0.4041
vt 0.6557 0.4042
vt 0.6561 0.4040
vt 0.6563 0.4048
vt 0.6559 0.4046
vn 0.9336 -0.1409 0.3294
vn 0.4909 0.8712 -0.0064
vn 0.0382 0.8987 -0.4369
vn 0.1524 0.9131 -0.3783
vn 0.1351 0.7765 -0.6155
vn -0.3927 -0.2682 -0.8797
vn -0.4868 -0.1715 -0.8565
vn -0.4157 0.1346 -0.8995
vn 0.6649 -0.7401 -0.1008
vn 0.2274 -0.6404 -0.7336
vn -0.0978 -0.7118 -0.6955
vn -0.9255 0.2362 -0.2960
vn -0.8173 -0.5351 -0.2137
vn -0.7067 -0.4956 -0.5049
vn -0.1816 -0.9834 -0.0025
vn -0.4938 -0.8459 0.2016
vn 0.5311 -0.5230 0.6667
vn 0.5999 -0.4123 0.6857
vn 0.4045 0.4772 0.7802
vn 0.4302 0.0279 0.9023
vn -0.0627 0.8665 0.4952
vn -0.0930 0.8689 0.4861
vn -0.6619 0.7325 0.1592
vn -0.5385 0.8402 0.0640
vn -0.8449 0.3941 -0.3617
vn -0.7548 -0.5394 -0.3733
vn -0.3198 -0.9391 -0.1259
vn 0.5687 -0.6216 0.5386
vn 0.4861 0.2628 0.8335
vn -0.3059 0.9112 0.2758
vn -0.8009 0.3920 -0.4527
vn -0.5130 -0.7185 -0.4696
vn -0.6261 -0.7716 0.1125
vn -0.1831 -0.8076 0.5606
vn 0.3177 -0.3881 0.8651
vn 0.3027 -0.7734 0.5570
vn 0.0263 -0.9373 0.3475
vn -0.2099 0.4140 0.8857
vn -0.8975 0.4376 -0.0551
vn -0.9564 -0.2413 0.1648
usemtl Pika
s off
f 37/1/1 28/2/1 3/3/1 2/4/1
f 28/2/2 29/5/2 4/6/2 3/3/2
f 30/7/3 5/8/4 4/9/5 29/5/3
f 5/8/6 30/7/7 31/10/7 6/11/8
f 37/1/9 2/4/9 1/12/9 32/13/9
f 6/11/10 31/10/11 32/13/11 1/12/11
s 1
f 5/8/12 6/11/13 7/14/14
f 7/14/14 6/11/13 8/15/15
f 6/11/13 1/16/16 8/15/15
f 8/15/15 1/16/16 9/17/17
f 1/16/16 36/18/18 9/17/17
f 9/17/17 36/18/18 10/19/19
f 36/18/18 34/20/20 10/19/19
f 10/19/19 34/20/20 33/21/21
f 35/22/22 4/9/23 11/23/24
f 11/23/24 4/9/23 12/24/25
f 4/9/23 5/8/12 12/24/25
f 5/8/12 7/14/14 12/24/25
f 12/24/25 7/14/14 13/25/26
f 13/25/26 7/14/14 14/26/27
f 7/14/14 8/15/15 14/26/27
f 14/26/27 8/15/15 15/27/28
f 8/15/15 9/17/17 15/27/28
f 15/27/28 9/17/17 16/28/29
f 9/17/17 10/19/19 16/28/29
f 16/28/29 10/19/19 17/29/30
f 10/19/19 33/21/21 17/29/30
f 17/29/30 33/21/21 18/30/31
f 11/23/24 12/24/25 18/30/31
f 12/24/25 13/25/26 18/30/31
f 18/30/31 13/25/26 19/31/32
f 19/31/32 13/25/26 20/32/33
f 13/25/26 14/26/27 20/32/33
f 20/32/33 14/26/27 21/33/34
f 14/26/27 15/27/28 21/33/34
f 21/33/34 15/27/28 22/34/35
f 15/27/28 16/28/29 22/34/35
f 16/28/29 23/35/36 22/34/35
f 23/35/36 20/32/33 22/34/35
f 22/34/35 20/32/33 21/33/34
f 20/32/33 23/35/36 19/31/32
f 19/31/32 23/35/36 24/36/37
f 24/36/37 23/35/36 25/37/38
f 23/35/36 16/28/29 25/37/38
f 16/28/29 17/29/30 25/37/38
f 25/37/38 17/29/30 26/38/39
f 17/29/30 18/30/31 26/38/39
f 18/30/31 19/31/32 26/38/39
f 26/38/39 19/31/32 27/39/40
f 19/31/32 24/36/37 27/39/40
f 24/36/37 25/37/38 27/39/40
f 27/39/40 25/37/38 26/38/39
