# Blender v2.78 (sub 0) OBJ File: 'pika.blend'
# www.blender.org
mtllib Pika_rfoot.mtl
o Pika_rfoot_DrawCall_98.005
v -3.497131 0.991008 0.191351
v -3.115633 0.750808 3.305236
v -5.457479 3.238295 3.972611
v -4.184632 2.848244 3.129373
v -5.179483 3.238671 2.710849
v -5.085299 3.145382 4.204037
v -6.070886 0.012130 8.084073
v -7.780151 -0.235067 7.300217
v -5.486184 0.207296 1.653468
v -4.268639 2.974186 1.899353
vt 0.0000 0.0000
vt 0.0000 0.0000
vt 0.0000 0.0000
vt 0.0000 0.0000
vt 0.0000 0.0000
vt 0.0000 0.0000
vt 0.0000 0.0000
vt 0.0000 0.0000
vt 0.0000 0.0000
vt 0.0000 0.0000
vn -0.4650 -0.6946 -0.5489
vn -0.7990 -0.3837 0.4630
vn -0.4104 0.8468 -0.3385
vn 0.2574 0.7912 -0.5547
vn 0.3980 -0.1789 -0.8998
vn 0.3315 0.8249 0.4579
vn 0.8970 -0.4122 0.1600
vn 0.7011 0.6865 0.1927
vn 0.1796 -0.2580 0.9493
vn -0.4251 0.8981 0.1125
usemtl Pika
s 1
f 9/1/1 8/2/2 5/3/3
f 5/3/3 10/4/4 9/1/1
f 10/4/4 1/5/5 9/1/1
f 6/6/6 2/7/7 4/8/8
f 2/7/7 6/6/6 7/9/9
f 8/2/2 3/10/10 5/3/3
f 3/10/10 8/2/2 6/6/6
f 8/2/2 7/9/9 6/6/6
f 2/7/7 1/5/5 4/8/8
f 1/5/5 10/4/4 4/8/8
f 6/6/6 4/8/8 3/10/10
f 5/3/3 3/10/10 4/8/8
f 10/4/4 5/3/3 4/8/8
f 2/7/7 7/9/9 1/5/5
f 7/9/9 8/2/2 1/5/5
f 8/2/2 9/1/1 1/5/5
