# Blender v2.78 (sub 0) OBJ File: ''
# www.blender.org
mtllib out1.mtl
o mesh0001
v -11.561500 -6.795220 4.036539
v -17.189100 -9.995172 8.933258
v -14.103499 -14.223902 9.981937
v -11.561500 -6.795220 4.036539
v -14.103499 -14.223902 9.981937
v -9.451980 -9.670131 4.902689
v -9.451980 -9.670131 4.902689
v -14.103499 -14.223902 9.981937
v -10.145300 -17.154501 10.226797
v -9.451980 -9.670131 4.902689
v -10.145300 -17.154501 10.226797
v -6.747500 -11.662500 5.245578
v -6.747500 -11.662500 5.245578
v -10.145300 -17.154501 10.226797
v -5.145250 -19.176502 9.906837
v -6.747500 -11.662500 5.245578
v -5.145250 -19.176502 9.906837
v -3.335220 -13.037101 5.197418
v -3.335220 -13.037101 5.197418
v -5.145250 -19.176502 9.906837
v 0.032215 -19.989601 9.359827
v -3.335220 -13.037101 5.197418
v 0.032215 -19.989601 9.359827
v 0.195006 -13.589901 4.960177
v 0.195006 -13.589901 4.960177
v 0.032215 -19.989601 9.359827
v 4.945300 -19.250202 8.766547
v 0.195006 -13.589901 4.960177
v 4.945300 -19.250202 8.766547
v 3.541480 -13.087300 4.639198
v 3.541480 -13.087300 4.639198
v 4.945300 -19.250202 8.766547
v 9.942530 -17.145601 8.023447
v 3.541480 -13.087300 4.639198
v 9.942530 -17.145601 8.023447
v 6.940960 -11.656401 4.161568
v 6.940960 -11.656401 4.161568
v 9.942530 -17.145601 8.023447
v 14.086400 -14.121901 7.373467
v 6.940960 -11.656401 4.161568
v 14.086400 -14.121901 7.373467
v 9.757050 -9.600760 3.704858
v 9.757050 -9.600760 3.704858
v 14.086400 -14.121901 7.373467
v 17.083099 -10.044600 6.921778
v 9.757050 -9.600760 3.704858
v 17.083099 -10.044600 6.921778
v 11.791599 -6.828860 3.362439
v 11.791599 -6.828860 3.362439
v 17.083099 -10.044600 6.921778
v 19.156599 -5.021521 6.545369
v 11.791599 -6.828860 3.362439
v 19.156599 -5.021521 6.545369
v 13.198800 -3.413880 3.073849
v 13.198800 -3.413880 3.073849
v 19.156599 -5.021521 6.545369
v 19.928600 0.000004 6.183960
v 13.198800 -3.413880 3.073849
v 19.928600 0.000004 6.183960
v 13.722600 0.000005 2.815180
v 13.722600 0.000005 2.815180
v 19.928600 0.000004 6.183960
v 19.156599 5.021529 5.804481
v 13.722600 0.000005 2.815180
v 19.156599 5.021529 5.804481
v 13.198800 3.413889 2.570160
v 13.198800 3.413889 2.570160
v 19.156599 5.021529 5.804481
v 17.083099 10.044699 5.438791
v 13.198800 3.413889 2.570160
v 17.083099 10.044699 5.438791
v 11.791599 6.828859 2.354231
v 11.791599 6.828859 2.354231
v 17.083099 10.044699 5.438791
v 14.086400 14.121899 5.138722
v 11.791599 6.828859 2.354231
v 14.086400 14.121899 5.138722
v 9.757040 9.600770 2.185562
v 9.757040 9.600770 2.185562
v 14.086400 14.121899 5.138722
v 9.942520 17.145599 4.934983
v 9.757040 9.600770 2.185562
v 9.942520 17.145599 4.934983
v 6.940950 11.656400 2.061872
v 6.940950 11.656400 2.061872
v 9.942520 17.145599 4.934983
v 4.945290 19.250200 4.813073
v 6.940950 11.656400 2.061872
v 4.945290 19.250200 4.813073
v 3.541470 13.087299 1.951422
v 3.541470 13.087299 1.951422
v 4.945290 19.250200 4.813073
v 0.032214 19.989599 4.750703
v 3.541470 13.087299 1.951422
v 0.032214 19.989599 4.750703
v 0.195003 13.589900 1.826662
v -17.189100 9.995159 5.297191
v -11.561500 6.795219 1.564561
v -9.451980 9.670130 1.498242
v -17.189100 9.995159 5.297191
v -9.451980 9.670130 1.498242
v -14.103499 14.223899 4.974302
v -14.103499 14.223899 4.974302
v -9.451980 9.670130 1.498242
v -6.747500 11.662499 1.525762
v -14.103499 14.223899 4.974302
v -6.747500 11.662499 1.525762
v -10.145300 17.154499 4.755253
v -10.145300 17.154499 4.755253
v -6.747500 11.662499 1.525762
v -3.335220 13.037100 1.662532
v -10.145300 17.154499 4.755253
v -3.335220 13.037100 1.662532
v -5.145260 19.176500 4.707343
v -5.145260 19.176500 4.707343
v -3.335220 13.037100 1.662532
v 0.195003 13.589900 1.826662
v -5.145260 19.176500 4.707343
v 0.195003 13.589900 1.826662
v 0.032214 19.989599 4.750703
v 5.209040 1.280900 3.202410
v 7.732250 1.863129 8.933260
v 7.033710 3.837098 9.981940
v 5.209040 1.280900 3.202410
v 7.033710 3.837098 9.981940
v 4.729640 2.624259 4.068561
v 4.729640 2.624259 4.068561
v 7.033710 3.837098 9.981940
v 5.852150 5.413418 10.226801
v 4.729640 2.624259 4.068561
v 5.852150 5.413418 10.226801
v 3.921170 3.697469 4.411440
v 3.921170 3.697469 4.411440
v 5.852150 5.413418 10.226801
v 4.167240 6.760758 9.906840
v 3.921170 3.697469 4.411440
v 4.167240 6.760758 9.906840
v 2.770710 4.614939 4.363281
v 2.770710 4.614939 4.363281
v 4.167240 6.760758 9.906840
v 2.275950 7.665068 9.359831
v 2.770710 4.614939 4.363281
v 2.275950 7.665068 9.359831
v 1.480960 5.230919 4.126041
v 1.480960 5.230919 4.126041
v 2.275950 7.665068 9.359831
v 0.308284 7.944139 8.766561
v 1.480960 5.230919 4.126041
v 0.308284 7.944139 8.766561
v 0.140823 5.421370 3.805071
v 0.140823 5.421370 3.805071
v 0.308284 7.944139 8.766561
v -1.847940 7.709538 8.023451
v 0.140823 5.421370 3.805071
v -1.847940 7.709538 8.023451
v -1.325890 5.262119 3.327431
v -1.325890 5.262119 3.327431
v -1.847940 7.709538 8.023451
v -3.782300 7.025018 7.373471
v -1.325890 5.262119 3.327431
v -3.782300 7.025018 7.373471
v -2.640540 4.796619 2.870721
v -2.640540 4.796619 2.870721
v -3.782300 7.025018 7.373471
v -5.397570 5.805389 6.921781
v -2.640540 4.796619 2.870721
v -5.397570 5.805389 6.921781
v -3.737640 3.967139 2.528311
v -3.737640 3.967139 2.528311
v -5.397570 5.805389 6.921781
v -6.767300 4.117539 6.545370
v -3.737640 3.967139 2.528311
v -6.767300 4.117539 6.545370
v -4.667890 2.819360 2.239720
v -4.667890 2.819360 2.239720
v -6.767300 4.117539 6.545370
v -7.638020 2.281319 6.183960
v -4.667890 2.819360 2.239720
v -7.638020 2.281319 6.183960
v -5.259470 1.570890 1.981050
v -5.259470 1.570890 1.981050
v -7.638020 2.281319 6.183960
v -7.916970 0.268344 5.804480
v -5.259470 1.570890 1.981050
v -7.916970 0.268344 5.804480
v -5.449500 0.202488 1.736030
v -5.449500 0.202488 1.736030
v -7.916970 0.268344 5.804480
v -7.697280 -1.894231 5.438789
v -5.449500 0.202488 1.736030
v -7.697280 -1.894231 5.438789
v -5.301100 -1.267450 1.520100
v -5.301100 -1.267450 1.520100
v -7.697280 -1.894231 5.438789
v -7.015490 -3.799941 5.138720
v -5.301100 -1.267450 1.520100
v -7.015490 -3.799941 5.138720
v -4.838620 -2.562750 1.351429
v -4.838620 -2.562750 1.351429
v -7.015490 -3.799941 5.138720
v -5.773400 -5.433211 4.934979
v -4.838620 -2.562750 1.351429
v -5.773400 -5.433211 4.934979
v -3.994620 -3.672990 1.227729
v -3.994620 -3.672990 1.227729
v -5.773400 -5.433211 4.934979
v -4.099050 -6.811921 4.813069
v -3.994620 -3.672990 1.227729
v -4.099050 -6.811921 4.813069
v -2.855500 -4.610550 1.117289
v -2.855500 -4.610550 1.117289
v -4.099050 -6.811921 4.813069
v -2.300650 -7.657701 4.750699
v -2.855500 -4.610550 1.117289
v -2.300650 -7.657701 4.750699
v -1.630440 -5.186270 0.992520
v 5.443860 -5.798561 5.297179
v 3.653280 -3.927900 0.730419
v 2.515670 -4.788280 0.664108
v 5.443860 -5.798561 5.297179
v 2.515670 -4.788280 0.664108
v 3.777160 -7.066091 4.974299
v 3.777160 -7.066091 4.974299
v 2.515670 -4.788280 0.664108
v 1.251050 -5.242300 0.691628
v 3.777160 -7.066091 4.974299
v 1.251050 -5.242300 0.691628
v 1.924630 -7.736191 4.755249
v 1.924630 -7.736191 4.755249
v 1.251050 -5.242300 0.691628
v -0.214134 -5.378540 0.828398
v 1.924630 -7.736191 4.755249
v -0.214134 -5.378540 0.828398
v -0.223203 -7.938761 4.707338
v -0.223203 -7.938761 4.707338
v -0.214134 -5.378540 0.828398
v -1.630440 -5.186270 0.992520
v -0.223203 -7.938761 4.707338
v -1.630440 -5.186270 0.992520
v -2.300650 -7.657701 4.750699
vt 0.0528 0.0000
vt 0.0046 0.0000
vt 0.0025 -1.0000
vt 0.0501 -1.0000
vt 0.0528 0.0000
vt 0.0025 -1.0000
vt 0.0969 0.0000
vt 0.0528 0.0000
vt 0.0501 -1.0000
vt 0.0938 -1.0000
vt 0.0969 0.0000
vt 0.0501 -1.0000
vt 0.1446 0.0000
vt 0.0969 0.0000
vt 0.0938 -1.0000
vt 0.1413 -1.0000
vt 0.1446 0.0000
vt 0.0938 -1.0000
vt 0.1907 0.0000
vt 0.1446 0.0000
vt 0.1413 -1.0000
vt 0.1873 -1.0000
vt 0.1907 0.0000
vt 0.1413 -1.0000
vt 0.2348 0.0000
vt 0.1907 0.0000
vt 0.1873 -1.0000
vt 0.2315 -1.0000
vt 0.2348 0.0000
vt 0.1873 -1.0000
vt 0.2848 0.0000
vt 0.2348 0.0000
vt 0.2315 -1.0000
vt 0.2816 -1.0000
vt 0.2848 0.0000
vt 0.2315 -1.0000
vt 0.3344 0.0000
vt 0.2848 0.0000
vt 0.2816 -1.0000
vt 0.3316 -1.0000
vt 0.3344 0.0000
vt 0.2816 -1.0000
vt 0.3858 0.0000
vt 0.3344 0.0000
vt 0.3316 -1.0000
vt 0.3836 -1.0000
vt 0.3858 0.0000
vt 0.3316 -1.0000
vt 0.4441 0.0000
vt 0.3858 0.0000
vt 0.3836 -1.0000
vt 0.4429 -1.0000
vt 0.4441 0.0000
vt 0.3836 -1.0000
vt 0.5000 0.0000
vt 0.4441 0.0000
vt 0.4429 -1.0000
vt 0.5000 -1.0000
vt 0.5000 0.0000
vt 0.4429 -1.0000
vt 0.5559 0.0000
vt 0.5000 0.0000
vt 0.5000 -1.0000
vt 0.5571 -1.0000
vt 0.5559 0.0000
vt 0.5000 -1.0000
vt 0.6142 0.0000
vt 0.5559 0.0000
vt 0.5571 -1.0000
vt 0.6164 -1.0000
vt 0.6142 0.0000
vt 0.5571 -1.0000
vt 0.6656 0.0000
vt 0.6142 0.0000
vt 0.6164 -1.0000
vt 0.6684 -1.0000
vt 0.6656 0.0000
vt 0.6164 -1.0000
vt 0.7152 0.0000
vt 0.6656 0.0000
vt 0.6684 -1.0000
vt 0.7184 -1.0000
vt 0.7152 0.0000
vt 0.6684 -1.0000
vt 0.7652 0.0000
vt 0.7152 0.0000
vt 0.7184 -1.0000
vt 0.7685 -1.0000
vt 0.7652 0.0000
vt 0.7184 -1.0000
vt 0.8092 0.0000
vt 0.7652 0.0000
vt 0.7685 -1.0000
vt 0.8127 -1.0000
vt 0.8092 0.0000
vt 0.7685 -1.0000
vt 0.9499 -1.0000
vt 0.9975 -1.0000
vt 0.9954 0.0000
vt 0.9472 0.0000
vt 0.9499 -1.0000
vt 0.9954 0.0000
vt 0.9062 -1.0000
vt 0.9499 -1.0000
vt 0.9472 0.0000
vt 0.9031 0.0000
vt 0.9062 -1.0000
vt 0.9472 0.0000
vt 0.8587 -1.0000
vt 0.9062 -1.0000
vt 0.9031 0.0000
vt 0.8554 0.0000
vt 0.8587 -1.0000
vt 0.9031 0.0000
vt 0.8127 -1.0000
vt 0.8587 -1.0000
vt 0.8554 0.0000
vt 0.8092 0.0000
vt 0.8127 -1.0000
vt 0.8554 0.0000
vt 0.0528 0.0000
vt 0.0046 0.0000
vt 0.0025 -1.0000
vt 0.0501 -1.0000
vt 0.0528 0.0000
vt 0.0025 -1.0000
vt 0.0969 0.0000
vt 0.0528 0.0000
vt 0.0501 -1.0000
vt 0.0938 -1.0000
vt 0.0969 0.0000
vt 0.0501 -1.0000
vt 0.1446 0.0000
vt 0.0969 0.0000
vt 0.0938 -1.0000
vt 0.1413 -1.0000
vt 0.1446 0.0000
vt 0.0938 -1.0000
vt 0.1907 0.0000
vt 0.1446 0.0000
vt 0.1413 -1.0000
vt 0.1873 -1.0000
vt 0.1907 0.0000
vt 0.1413 -1.0000
vt 0.2348 0.0000
vt 0.1907 0.0000
vt 0.1873 -1.0000
vt 0.2315 -1.0000
vt 0.2348 0.0000
vt 0.1873 -1.0000
vt 0.2848 0.0000
vt 0.2348 0.0000
vt 0.2315 -1.0000
vt 0.2816 -1.0000
vt 0.2848 0.0000
vt 0.2315 -1.0000
vt 0.3344 0.0000
vt 0.2848 0.0000
vt 0.2816 -1.0000
vt 0.3316 -1.0000
vt 0.3344 0.0000
vt 0.2816 -1.0000
vt 0.3858 0.0000
vt 0.3344 0.0000
vt 0.3316 -1.0000
vt 0.3836 -1.0000
vt 0.3858 0.0000
vt 0.3316 -1.0000
vt 0.4441 0.0000
vt 0.3858 0.0000
vt 0.3836 -1.0000
vt 0.4429 -1.0000
vt 0.4441 0.0000
vt 0.3836 -1.0000
vt 0.5000 0.0000
vt 0.4441 0.0000
vt 0.4429 -1.0000
vt 0.5000 -1.0000
vt 0.5000 0.0000
vt 0.4429 -1.0000
vt 0.5559 0.0000
vt 0.5000 0.0000
vt 0.5000 -1.0000
vt 0.5571 -1.0000
vt 0.5559 0.0000
vt 0.5000 -1.0000
vt 0.6142 0.0000
vt 0.5559 0.0000
vt 0.5571 -1.0000
vt 0.6164 -1.0000
vt 0.6142 0.0000
vt 0.5571 -1.0000
vt 0.6656 0.0000
vt 0.6142 0.0000
vt 0.6164 -1.0000
vt 0.6684 -1.0000
vt 0.6656 0.0000
vt 0.6164 -1.0000
vt 0.7152 0.0000
vt 0.6656 0.0000
vt 0.6684 -1.0000
vt 0.7184 -1.0000
vt 0.7152 0.0000
vt 0.6684 -1.0000
vt 0.7652 0.0000
vt 0.7152 0.0000
vt 0.7184 -1.0000
vt 0.7685 -1.0000
vt 0.7652 0.0000
vt 0.7184 -1.0000
vt 0.8092 0.0000
vt 0.7652 0.0000
vt 0.7685 -1.0000
vt 0.8127 -1.0000
vt 0.8092 0.0000
vt 0.7685 -1.0000
vt 0.9499 -1.0000
vt 0.9975 -1.0000
vt 0.9954 0.0000
vt 0.9472 0.0000
vt 0.9499 -1.0000
vt 0.9954 0.0000
vt 0.9062 -1.0000
vt 0.9499 -1.0000
vt 0.9472 0.0000
vt 0.9031 0.0000
vt 0.9062 -1.0000
vt 0.9472 0.0000
vt 0.8587 -1.0000
vt 0.9062 -1.0000
vt 0.9031 0.0000
vt 0.8554 0.0000
vt 0.8587 -1.0000
vt 0.9031 0.0000
vt 0.8127 -1.0000
vt 0.8587 -1.0000
vt 0.8554 0.0000
vt 0.8092 0.0000
vt 0.8127 -1.0000
vt 0.8554 0.0000
vn -0.4006 -0.4851 -0.7773
vn -0.3636 -0.5030 -0.7840
vn -0.3397 -0.5241 -0.7810
vn -0.2943 -0.5357 -0.7914
vn -0.2724 -0.5485 -0.7905
vn -0.2321 -0.5480 -0.8036
vn -0.1741 -0.5665 -0.8054
vn -0.1423 -0.5583 -0.8173
vn -0.0143 -0.5662 -0.8241
vn 0.0038 -0.5559 -0.8313
vn 0.1019 -0.5374 -0.8371
vn 0.1062 -0.5326 -0.8396
vn 0.2167 -0.4797 -0.8503
vn 0.2149 -0.4830 -0.8488
vn 0.3571 -0.3581 -0.8627
vn 0.3553 -0.3670 -0.8597
vn 0.4346 -0.2444 -0.8668
vn 0.4354 -0.2524 -0.8641
vn 0.4713 -0.1352 -0.8715
vn 0.4725 -0.1384 -0.8704
vn 0.4771 0.0069 -0.8788
vn 0.4750 0.0097 -0.8799
vn 0.4483 0.1206 -0.8857
vn 0.4415 0.1257 -0.8884
vn 0.3883 0.2195 -0.8950
vn 0.3790 0.2236 -0.8980
vn 0.2799 0.3226 -0.9042
vn 0.2756 0.3231 -0.9053
vn 0.1808 0.3767 -0.9085
vn 0.1885 0.3779 -0.9064
vn 0.0727 0.4064 -0.9108
vn 0.0961 0.4157 -0.9044
vn -0.4131 0.2831 -0.8656
vn -0.4198 0.2395 -0.8755
vn -0.2770 0.3881 -0.8790
vn -0.3001 0.3387 -0.8917
vn -0.1400 0.4361 -0.8889
vn -0.1693 0.3974 -0.9019
vn -0.0268 0.4378 -0.8987
vn -0.0574 0.4137 -0.9086
vn 0.7810 0.4852 -0.3932
vn 0.7505 0.5259 -0.4003
vn 0.7044 0.5894 -0.3954
vn 0.6630 0.6291 -0.4058
vn 0.6168 0.6754 -0.4041
vn 0.5773 0.7020 -0.4171
vn 0.4875 0.7659 -0.4193
vn 0.4522 0.7805 -0.4317
vn 0.2546 0.8615 -0.4393
vn 0.2300 0.8643 -0.4473
vn 0.0598 0.8890 -0.4540
vn 0.0524 0.8879 -0.4569
vn -0.1499 0.8698 -0.4700
vn -0.1459 0.8715 -0.4683
vn -0.4362 0.7576 -0.4855
vn -0.4279 0.7648 -0.4817
vn -0.6199 0.6125 -0.4905
vn -0.6147 0.6206 -0.4868
vn -0.7419 0.4497 -0.4973
vn -0.7406 0.4536 -0.4958
vn -0.8349 0.2115 -0.5082
vn -0.8350 0.2072 -0.5098
vn -0.8550 0.0008 -0.5186
vn -0.8524 -0.0093 -0.5227
vn -0.8191 -0.2089 -0.5343
vn -0.8130 -0.2201 -0.5392
vn -0.6961 -0.4607 -0.5506
vn -0.6920 -0.4645 -0.5526
vn -0.5511 -0.6198 -0.5587
vn -0.5601 -0.6151 -0.5549
vn -0.3673 -0.7395 -0.5641
vn -0.4000 -0.7314 -0.5523
vn 0.5433 -0.6805 -0.4918
vn 0.5820 -0.6362 -0.5065
vn 0.2805 -0.8123 -0.5114
vn 0.3429 -0.7742 -0.5320
vn 0.0299 -0.8497 -0.5264
vn 0.0906 -0.8313 -0.5484
vn -0.1744 -0.8216 -0.5427
vn -0.1225 -0.8191 -0.5605
usemtl eff_poketrainer_mball
s off
f 3/1/1 2/2/1 1/3/1
f 6/4/2 5/5/2 4/6/2
f 9/7/3 8/8/3 7/9/3
f 12/10/4 11/11/4 10/12/4
f 15/13/5 14/14/5 13/15/5
f 18/16/6 17/17/6 16/18/6
f 21/19/7 20/20/7 19/21/7
f 24/22/8 23/23/8 22/24/8
f 27/25/9 26/26/9 25/27/9
f 30/28/10 29/29/10 28/30/10
f 33/31/11 32/32/11 31/33/11
f 36/34/12 35/35/12 34/36/12
f 39/37/13 38/38/13 37/39/13
f 42/40/14 41/41/14 40/42/14
f 45/43/15 44/44/15 43/45/15
f 48/46/16 47/47/16 46/48/16
f 51/49/17 50/50/17 49/51/17
f 54/52/18 53/53/18 52/54/18
f 57/55/19 56/56/19 55/57/19
f 60/58/20 59/59/20 58/60/20
f 63/61/21 62/62/21 61/63/21
f 66/64/22 65/65/22 64/66/22
f 69/67/23 68/68/23 67/69/23
f 72/70/24 71/71/24 70/72/24
f 75/73/25 74/74/25 73/75/25
f 78/76/26 77/77/26 76/78/26
f 81/79/27 80/80/27 79/81/27
f 84/82/28 83/83/28 82/84/28
f 87/85/29 86/86/29 85/87/29
f 90/88/30 89/89/30 88/90/30
f 93/91/31 92/92/31 91/93/31
f 96/94/32 95/95/32 94/96/32
f 99/97/33 98/98/33 97/99/33
f 102/100/34 101/101/34 100/102/34
f 105/103/35 104/104/35 103/105/35
f 108/106/36 107/107/36 106/108/36
f 111/109/37 110/110/37 109/111/37
f 114/112/38 113/113/38 112/114/38
f 117/115/39 116/116/39 115/117/39
f 120/118/40 119/119/40 118/120/40
f 123/121/41 122/122/41 121/123/41
f 126/124/42 125/125/42 124/126/42
f 129/127/43 128/128/43 127/129/43
f 132/130/44 131/131/44 130/132/44
f 135/133/45 134/134/45 133/135/45
f 138/136/46 137/137/46 136/138/46
f 141/139/47 140/140/47 139/141/47
f 144/142/48 143/143/48 142/144/48
f 147/145/49 146/146/49 145/147/49
f 150/148/50 149/149/50 148/150/50
f 153/151/51 152/152/51 151/153/51
f 156/154/52 155/155/52 154/156/52
f 159/157/53 158/158/53 157/159/53
f 162/160/54 161/161/54 160/162/54
f 165/163/55 164/164/55 163/165/55
f 168/166/56 167/167/56 166/168/56
f 171/169/57 170/170/57 169/171/57
f 174/172/58 173/173/58 172/174/58
f 177/175/59 176/176/59 175/177/59
f 180/178/60 179/179/60 178/180/60
f 183/181/61 182/182/61 181/183/61
f 186/184/62 185/185/62 184/186/62
f 189/187/63 188/188/63 187/189/63
f 192/190/64 191/191/64 190/192/64
f 195/193/65 194/194/65 193/195/65
f 198/196/66 197/197/66 196/198/66
f 201/199/67 200/200/67 199/201/67
f 204/202/68 203/203/68 202/204/68
f 207/205/69 206/206/69 205/207/69
f 210/208/70 209/209/70 208/210/70
f 213/211/71 212/212/71 211/213/71
f 216/214/72 215/215/72 214/216/72
f 219/217/73 218/218/73 217/219/73
f 222/220/74 221/221/74 220/222/74
f 225/223/75 224/224/75 223/225/75
f 228/226/76 227/227/76 226/228/76
f 231/229/77 230/230/77 229/231/77
f 234/232/78 233/233/78 232/234/78
f 237/235/79 236/236/79 235/237/79
f 240/238/80 239/239/80 238/240/80
