# Blender v2.78 (sub 0) OBJ File: ''
# www.blender.org
mtllib out2.mtl
o mesh0000
v -4.808240 -3.312981 4.930289
v -0.135386 -0.097110 0.302486
v -4.618900 -3.881721 4.726939
v -4.513630 -3.036971 5.417819
v -0.135386 -0.097110 0.302486
v -4.808240 -3.312981 4.930289
v -4.808240 -3.312981 4.930289
v -0.135386 -0.097110 0.302486
v -5.292190 -3.020241 4.646100
v 1.730230 -4.200501 4.545539
v -0.135386 -0.097110 0.302486
v 2.278010 -4.475491 3.997879
v 2.581590 -3.770791 4.517129
v -0.135386 -0.097110 0.302486
v 1.730230 -4.200501 4.545539
v 1.730230 -4.200501 4.545539
v -0.135386 -0.097110 0.302486
v 1.318780 -4.061391 4.857769
v -2.239520 4.309079 4.477581
v -0.135386 -0.097110 0.302486
v -1.983410 4.707880 4.189621
v -2.763220 4.172499 4.356650
v -0.135386 -0.097110 0.302486
v -2.239520 4.309079 4.477581
v -2.239520 4.309079 4.477581
v -0.135386 -0.097110 0.302486
v -1.971920 4.046879 4.886460
v 0.445572 -6.713600 3.408409
v -0.135386 -0.097110 0.302486
v 1.251440 -7.050510 2.550779
v 0.836413 -6.190161 4.443629
v -0.135386 -0.097110 0.302486
v 0.445572 -6.713600 3.408409
v 0.445572 -6.713600 3.408409
v -0.135386 -0.097110 0.302486
v -0.751132 -6.900140 3.230799
v 5.195470 -1.600301 7.640499
v -0.135386 -0.097110 0.302486
v 4.492080 -0.282605 8.418650
v 4.523670 -3.135401 7.810099
v -0.135386 -0.097110 0.302486
v 5.195470 -1.600301 7.640499
v 5.195470 -1.600301 7.640499
v -0.135386 -0.097110 0.302486
v 6.570630 -1.382901 6.692740
v 5.955310 -2.879440 2.036749
v -0.135386 -0.097110 0.302486
v 6.010840 -3.393380 1.032309
v 6.392230 -1.845920 2.167330
v -0.135386 -0.097110 0.302486
v 5.955310 -2.879440 2.036749
v 5.955310 -2.879440 2.036749
v -0.135386 -0.097110 0.302486
v 5.462860 -3.399030 2.910609
v 1.573930 6.941329 2.957211
v -0.135386 -0.097110 0.302486
v 2.208280 6.759860 3.031631
v 1.370200 7.209139 2.384821
v -0.135386 -0.097110 0.302486
v 1.573930 6.941329 2.957211
v 1.573930 6.941329 2.957211
v -0.135386 -0.097110 0.302486
v 1.143320 6.854990 3.455191
v 2.664380 2.727679 7.209010
v -0.135386 -0.097110 0.302486
v 2.095760 3.787109 7.007350
v 2.090500 1.831369 7.803720
v -0.135386 -0.097110 0.302486
v 2.664380 2.727679 7.209010
v 2.664380 2.727679 7.209010
v -0.135386 -0.097110 0.302486
v 3.806860 2.564559 6.815960
v 4.893250 0.393896 3.308370
v -0.135386 -0.097110 0.302486
v 4.910920 0.888409 3.200800
v 4.655750 0.233961 3.726030
v -0.135386 -0.097110 0.302486
v 4.893250 0.393896 3.308370
v 4.893250 0.393896 3.308370
v -0.135386 -0.097110 0.302486
v 5.113090 0.059319 2.998290
v -1.511470 1.392638 10.031500
v -0.135386 -0.097110 0.302486
v -2.193010 1.884978 9.859810
v -1.610220 0.547870 10.145599
v -0.135386 -0.097110 0.302486
v -1.511470 1.392638 10.031500
v -1.511470 1.392638 10.031500
v -0.135386 -0.097110 0.302486
v -0.731170 1.745058 10.089200
v -4.171540 1.764079 7.477830
v -0.135386 -0.097110 0.302486
v -3.592750 2.144849 7.705290
v -4.698400 2.094269 7.096890
v -0.135386 -0.097110 0.302486
v -4.171540 1.764079 7.477830
v -4.171540 1.764079 7.477830
v -0.135386 -0.097110 0.302486
v -4.223480 1.053109 7.631330
v -1.716310 -1.961781 6.907350
v -0.135386 -0.097110 0.302486
v -1.503010 -1.428981 7.109030
v -2.301870 -2.015671 6.751589
v -0.135386 -0.097110 0.302486
v -1.716310 -1.961781 6.907350
v -1.716310 -1.961781 6.907350
v -0.135386 -0.097110 0.302486
v -1.344050 -2.440691 6.861429
v -0.711017 3.950439 6.801450
v -0.135386 -0.097110 0.302486
v -0.251210 3.564079 7.081870
v -0.529816 4.499889 6.478001
v -0.135386 -0.097110 0.302486
v -0.711017 3.950439 6.801450
v -0.711017 3.950439 6.801450
v -0.135386 -0.097110 0.302486
v -1.352020 3.787359 6.844460
v -7.047090 -0.154869 2.461810
v -0.135386 -0.097110 0.302486
v -7.322770 -0.749252 1.571570
v -6.746920 -0.664715 3.395490
v -0.135386 -0.097110 0.302486
v -7.047090 -0.154869 2.461810
v -7.047090 -0.154869 2.461810
v -0.135386 -0.097110 0.302486
v -7.071590 0.949357 2.418360
vt 0.6965 -0.0516
vt 0.3148 -1.0000
vt -0.0669 -0.0516
vt 0.6965 -0.0516
vt 0.3148 -1.0000
vt -0.0669 -0.0516
vt 0.6965 -0.0516
vt 0.3148 -1.0000
vt -0.0669 -0.0516
vt 0.6965 -0.0516
vt 0.3148 -1.0000
vt -0.0669 -0.0516
vt 0.6965 -0.0516
vt 0.3148 -1.0000
vt -0.0669 -0.0516
vt 0.6965 -0.0516
vt 0.3148 -1.0000
vt -0.0669 -0.0516
vt 0.6965 -0.0516
vt 0.3148 -1.0000
vt -0.0669 -0.0516
vt 0.6965 -0.0516
vt 0.3148 -1.0000
vt -0.0669 -0.0516
vt 0.6965 -0.0516
vt 0.3148 -1.0000
vt -0.0669 -0.0516
vt 0.6965 -0.0516
vt 0.3148 -1.0000
vt -0.0669 -0.0516
vt 0.6965 -0.0516
vt 0.3148 -1.0000
vt -0.0669 -0.0516
vt 0.6965 -0.0516
vt 0.3148 -1.0000
vt -0.0669 -0.0516
vt 0.6965 -0.0516
vt 0.3148 -1.0000
vt -0.0669 -0.0516
vt 0.6965 -0.0516
vt 0.3148 -1.0000
vt -0.0669 -0.0516
vt 0.6965 -0.0516
vt 0.3148 -1.0000
vt -0.0669 -0.0516
vt 0.6965 -0.0516
vt 0.3148 -1.0000
vt -0.0669 -0.0516
vt 0.6965 -0.0516
vt 0.3148 -1.0000
vt -0.0669 -0.0516
vt 0.6965 -0.0516
vt 0.3148 -1.0000
vt -0.0669 -0.0516
vt 0.6965 -0.0516
vt 0.3148 -1.0000
vt -0.0669 -0.0516
vt 0.6965 -0.0516
vt 0.3148 -1.0000
vt -0.0669 -0.0516
vt 0.6965 -0.0516
vt 0.3148 -1.0000
vt -0.0669 -0.0516
vt 0.6965 -0.0516
vt 0.3148 -1.0000
vt -0.0669 -0.0516
vt 0.6965 -0.0516
vt 0.3148 -1.0000
vt -0.0669 -0.0516
vt 0.6965 -0.0516
vt 0.3148 -1.0000
vt -0.0669 -0.0516
vt 0.6965 -0.0516
vt 0.3148 -1.0000
vt -0.0669 -0.0516
vt 0.6965 -0.0516
vt 0.3148 -1.0000
vt -0.0669 -0.0516
vt 0.6965 -0.0516
vt 0.3148 -1.0000
vt -0.0669 -0.0516
vt 0.6965 -0.0516
vt 0.3148 -1.0000
vt -0.0669 -0.0516
vt 0.6965 -0.0516
vt 0.3148 -1.0000
vt -0.0669 -0.0516
vt 0.6965 -0.0516
vt 0.3148 -1.0000
vt -0.0669 -0.0516
vt 0.6965 -0.0516
vt 0.3148 -1.0000
vt -0.0669 -0.0516
vt 0.6965 -0.0516
vt 0.3148 -1.0000
vt -0.0669 -0.0516
vt 0.6965 -0.0516
vt 0.3148 -1.0000
vt -0.0669 -0.0516
vt 0.6965 -0.0516
vt 0.3148 -1.0000
vt -0.0669 -0.0516
vt 0.6965 -0.0516
vt 0.3148 -1.0000
vt -0.0669 -0.0516
vt 0.6965 -0.0516
vt 0.3148 -1.0000
vt -0.0669 -0.0516
vt 0.6965 -0.0516
vt 0.3148 -1.0000
vt -0.0669 -0.0516
vt 0.6965 -0.0516
vt 0.3148 -1.0000
vt -0.0669 -0.0516
vt 0.6965 -0.0516
vt 0.3148 -1.0000
vt -0.0669 -0.0516
vt 0.6965 -0.0516
vt 0.3148 -1.0000
vt -0.0669 -0.0516
vt 0.6965 -0.0516
vt 0.3148 -1.0000
vt -0.0669 -0.0516
vt 0.6965 -0.0516
vt 0.3148 -1.0000
vt -0.0669 -0.0516
vn 0.7091 -0.0160 0.7049
vn 0.6140 -0.7859 0.0739
vn -0.0951 -0.7699 -0.6311
vn 0.6714 0.6580 0.3411
vn 0.2893 -0.6214 -0.7281
vn -0.5652 -0.7031 -0.4315
vn -0.8235 0.1301 -0.5523
vn -0.0105 0.6851 -0.7283
vn 0.8129 0.5551 -0.1761
vn 0.7488 0.3344 0.5723
vn 0.9443 -0.0682 -0.3220
vn 0.1955 -0.4026 -0.8943
vn -0.7000 -0.6012 0.3854
vn -0.7110 0.3768 0.5937
vn -0.0110 0.9780 0.2083
vn 0.4717 0.7953 -0.3808
vn 0.2759 0.0048 -0.9612
vn -0.1958 -0.7905 -0.5804
vn 0.1963 0.3039 -0.9322
vn 0.9254 -0.0854 -0.3693
vn 0.7291 -0.3894 0.5629
vn -0.8117 -0.3461 0.4706
vn -0.8100 0.5793 0.0914
vn 0.0017 0.9253 -0.3791
vn -0.5170 0.1995 0.8324
vn -0.2304 0.9453 0.2310
vn 0.2867 0.7457 -0.6014
vn -0.5917 -0.8052 0.0396
vn -0.9836 0.0942 -0.1536
vn -0.3920 0.8995 -0.1932
vn -0.3751 0.8239 -0.4247
vn 0.5001 0.8640 0.0572
vn 0.8753 0.0401 0.4819
vn -0.9092 0.4033 -0.1038
vn -0.1509 0.9602 0.2350
vn 0.7583 0.5570 0.3387
vn 0.7164 0.6189 -0.3220
vn 0.9589 -0.1948 0.2063
vn 0.2425 -0.8137 0.5283
vn 0.1668 -0.8431 0.5113
vn -0.1308 -0.8872 -0.4424
vn -0.2976 -0.0441 -0.9537
usemtl eff_poketrainer_mballB
s off
f 3/1/1 2/2/1 1/3/1
f 6/4/2 5/5/2 4/6/2
f 9/7/3 8/8/3 7/9/3
f 12/10/4 11/11/4 10/12/4
f 15/13/5 14/14/5 13/15/5
f 18/16/6 17/17/6 16/18/6
f 21/19/7 20/20/7 19/21/7
f 24/22/8 23/23/8 22/24/8
f 27/25/9 26/26/9 25/27/9
f 30/28/10 29/29/10 28/30/10
f 33/31/11 32/32/11 31/33/11
f 36/34/12 35/35/12 34/36/12
f 39/37/13 38/38/13 37/39/13
f 42/40/14 41/41/14 40/42/14
f 45/43/15 44/44/15 43/45/15
f 48/46/16 47/47/16 46/48/16
f 51/49/17 50/50/17 49/51/17
f 54/52/18 53/53/18 52/54/18
f 57/55/19 56/56/19 55/57/19
f 60/58/20 59/59/20 58/60/20
f 63/61/21 62/62/21 61/63/21
f 66/64/22 65/65/22 64/66/22
f 69/67/23 68/68/23 67/69/23
f 72/70/24 71/71/24 70/72/24
f 75/73/25 74/74/25 73/75/25
f 78/76/26 77/77/26 76/78/26
f 81/79/27 80/80/27 79/81/27
f 84/82/28 83/83/28 82/84/28
f 87/85/29 86/86/29 85/87/29
f 90/88/30 89/89/30 88/90/30
f 93/91/31 92/92/31 91/93/31
f 96/94/32 95/95/32 94/96/32
f 99/97/33 98/98/33 97/99/33
f 102/100/34 101/101/34 100/102/34
f 105/103/35 104/104/35 103/105/35
f 108/106/36 107/107/36 106/108/36
f 111/109/37 110/110/37 109/111/37
f 114/112/38 113/113/38 112/114/38
f 117/115/39 116/116/39 115/117/39
f 120/118/40 119/119/40 118/120/40
f 123/121/41 122/122/41 121/123/41
f 126/124/42 125/125/42 124/126/42
